<svg version="1.1" xmlns="http://www.w3.org/2000/svg" xmlns:xlink="http://www.w3.org/1999/xlink" width="1111" height="539"><defs/><g><text fill="#eeeeee" stroke="none" font-family="Arial" font-size="24px" font-style="normal" font-weight="normal" text-decoration="none" x="0" y="0">UNREGISTERED</text><text fill="#eeeeee" stroke="none" font-family="Arial" font-size="24px" font-style="normal" font-weight="normal" text-decoration="none" x="0" y="30">UNREGISTERED</text><text fill="#eeeeee" stroke="none" font-family="Arial" font-size="24px" font-style="normal" font-weight="normal" text-decoration="none" x="0" y="60">UNREGISTERED</text><text fill="#eeeeee" stroke="none" font-family="Arial" font-size="24px" font-style="normal" font-weight="normal" text-decoration="none" x="0" y="90">UNREGISTERED</text><text fill="#eeeeee" stroke="none" font-family="Arial" font-size="24px" font-style="normal" font-weight="normal" text-decoration="none" x="0" y="120">UNREGISTERED</text><text fill="#eeeeee" stroke="none" font-family="Arial" font-size="24px" font-style="normal" font-weight="normal" text-decoration="none" x="0" y="150">UNREGISTERED</text><text fill="#eeeeee" stroke="none" font-family="Arial" font-size="24px" font-style="normal" font-weight="normal" text-decoration="none" x="0" y="180">UNREGISTERED</text><text fill="#eeeeee" stroke="none" font-family="Arial" font-size="24px" font-style="normal" font-weight="normal" text-decoration="none" x="0" y="210">UNREGISTERED</text><text fill="#eeeeee" stroke="none" font-family="Arial" font-size="24px" font-style="normal" font-weight="normal" text-decoration="none" x="0" y="240">UNREGISTERED</text><text fill="#eeeeee" stroke="none" font-family="Arial" font-size="24px" font-style="normal" font-weight="normal" text-decoration="none" x="0" y="270">UNREGISTERED</text><text fill="#eeeeee" stroke="none" font-family="Arial" font-size="24px" font-style="normal" font-weight="normal" text-decoration="none" x="0" y="300">UNREGISTERED</text><text fill="#eeeeee" stroke="none" font-family="Arial" font-size="24px" font-style="normal" font-weight="normal" text-decoration="none" x="0" y="330">UNREGISTERED</text><text fill="#eeeeee" stroke="none" font-family="Arial" font-size="24px" font-style="normal" font-weight="normal" text-decoration="none" x="0" y="360">UNREGISTERED</text><text fill="#eeeeee" stroke="none" font-family="Arial" font-size="24px" font-style="normal" font-weight="normal" text-decoration="none" x="0" y="390">UNREGISTERED</text><text fill="#eeeeee" stroke="none" font-family="Arial" font-size="24px" font-style="normal" font-weight="normal" text-decoration="none" x="0" y="420">UNREGISTERED</text><text fill="#eeeeee" stroke="none" font-family="Arial" font-size="24px" font-style="normal" font-weight="normal" text-decoration="none" x="0" y="450">UNREGISTERED</text><text fill="#eeeeee" stroke="none" font-family="Arial" font-size="24px" font-style="normal" font-weight="normal" text-decoration="none" x="0" y="480">UNREGISTERED</text><text fill="#eeeeee" stroke="none" font-family="Arial" font-size="24px" font-style="normal" font-weight="normal" text-decoration="none" x="0" y="510">UNREGISTERED</text><text fill="#eeeeee" stroke="none" font-family="Arial" font-size="24px" font-style="normal" font-weight="normal" text-decoration="none" x="200" y="0">UNREGISTERED</text><text fill="#eeeeee" stroke="none" font-family="Arial" font-size="24px" font-style="normal" font-weight="normal" text-decoration="none" x="200" y="30">UNREGISTERED</text><text fill="#eeeeee" stroke="none" font-family="Arial" font-size="24px" font-style="normal" font-weight="normal" text-decoration="none" x="200" y="60">UNREGISTERED</text><text fill="#eeeeee" stroke="none" font-family="Arial" font-size="24px" font-style="normal" font-weight="normal" text-decoration="none" x="200" y="90">UNREGISTERED</text><text fill="#eeeeee" stroke="none" font-family="Arial" font-size="24px" font-style="normal" font-weight="normal" text-decoration="none" x="200" y="120">UNREGISTERED</text><text fill="#eeeeee" stroke="none" font-family="Arial" font-size="24px" font-style="normal" font-weight="normal" text-decoration="none" x="200" y="150">UNREGISTERED</text><text fill="#eeeeee" stroke="none" font-family="Arial" font-size="24px" font-style="normal" font-weight="normal" text-decoration="none" x="200" y="180">UNREGISTERED</text><text fill="#eeeeee" stroke="none" font-family="Arial" font-size="24px" font-style="normal" font-weight="normal" text-decoration="none" x="200" y="210">UNREGISTERED</text><text fill="#eeeeee" stroke="none" font-family="Arial" font-size="24px" font-style="normal" font-weight="normal" text-decoration="none" x="200" y="240">UNREGISTERED</text><text fill="#eeeeee" stroke="none" font-family="Arial" font-size="24px" font-style="normal" font-weight="normal" text-decoration="none" x="200" y="270">UNREGISTERED</text><text fill="#eeeeee" stroke="none" font-family="Arial" font-size="24px" font-style="normal" font-weight="normal" text-decoration="none" x="200" y="300">UNREGISTERED</text><text fill="#eeeeee" stroke="none" font-family="Arial" font-size="24px" font-style="normal" font-weight="normal" text-decoration="none" x="200" y="330">UNREGISTERED</text><text fill="#eeeeee" stroke="none" font-family="Arial" font-size="24px" font-style="normal" font-weight="normal" text-decoration="none" x="200" y="360">UNREGISTERED</text><text fill="#eeeeee" stroke="none" font-family="Arial" font-size="24px" font-style="normal" font-weight="normal" text-decoration="none" x="200" y="390">UNREGISTERED</text><text fill="#eeeeee" stroke="none" font-family="Arial" font-size="24px" font-style="normal" font-weight="normal" text-decoration="none" x="200" y="420">UNREGISTERED</text><text fill="#eeeeee" stroke="none" font-family="Arial" font-size="24px" font-style="normal" font-weight="normal" text-decoration="none" x="200" y="450">UNREGISTERED</text><text fill="#eeeeee" stroke="none" font-family="Arial" font-size="24px" font-style="normal" font-weight="normal" text-decoration="none" x="200" y="480">UNREGISTERED</text><text fill="#eeeeee" stroke="none" font-family="Arial" font-size="24px" font-style="normal" font-weight="normal" text-decoration="none" x="200" y="510">UNREGISTERED</text><text fill="#eeeeee" stroke="none" font-family="Arial" font-size="24px" font-style="normal" font-weight="normal" text-decoration="none" x="400" y="0">UNREGISTERED</text><text fill="#eeeeee" stroke="none" font-family="Arial" font-size="24px" font-style="normal" font-weight="normal" text-decoration="none" x="400" y="30">UNREGISTERED</text><text fill="#eeeeee" stroke="none" font-family="Arial" font-size="24px" font-style="normal" font-weight="normal" text-decoration="none" x="400" y="60">UNREGISTERED</text><text fill="#eeeeee" stroke="none" font-family="Arial" font-size="24px" font-style="normal" font-weight="normal" text-decoration="none" x="400" y="90">UNREGISTERED</text><text fill="#eeeeee" stroke="none" font-family="Arial" font-size="24px" font-style="normal" font-weight="normal" text-decoration="none" x="400" y="120">UNREGISTERED</text><text fill="#eeeeee" stroke="none" font-family="Arial" font-size="24px" font-style="normal" font-weight="normal" text-decoration="none" x="400" y="150">UNREGISTERED</text><text fill="#eeeeee" stroke="none" font-family="Arial" font-size="24px" font-style="normal" font-weight="normal" text-decoration="none" x="400" y="180">UNREGISTERED</text><text fill="#eeeeee" stroke="none" font-family="Arial" font-size="24px" font-style="normal" font-weight="normal" text-decoration="none" x="400" y="210">UNREGISTERED</text><text fill="#eeeeee" stroke="none" font-family="Arial" font-size="24px" font-style="normal" font-weight="normal" text-decoration="none" x="400" y="240">UNREGISTERED</text><text fill="#eeeeee" stroke="none" font-family="Arial" font-size="24px" font-style="normal" font-weight="normal" text-decoration="none" x="400" y="270">UNREGISTERED</text><text fill="#eeeeee" stroke="none" font-family="Arial" font-size="24px" font-style="normal" font-weight="normal" text-decoration="none" x="400" y="300">UNREGISTERED</text><text fill="#eeeeee" stroke="none" font-family="Arial" font-size="24px" font-style="normal" font-weight="normal" text-decoration="none" x="400" y="330">UNREGISTERED</text><text fill="#eeeeee" stroke="none" font-family="Arial" font-size="24px" font-style="normal" font-weight="normal" text-decoration="none" x="400" y="360">UNREGISTERED</text><text fill="#eeeeee" stroke="none" font-family="Arial" font-size="24px" font-style="normal" font-weight="normal" text-decoration="none" x="400" y="390">UNREGISTERED</text><text fill="#eeeeee" stroke="none" font-family="Arial" font-size="24px" font-style="normal" font-weight="normal" text-decoration="none" x="400" y="420">UNREGISTERED</text><text fill="#eeeeee" stroke="none" font-family="Arial" font-size="24px" font-style="normal" font-weight="normal" text-decoration="none" x="400" y="450">UNREGISTERED</text><text fill="#eeeeee" stroke="none" font-family="Arial" font-size="24px" font-style="normal" font-weight="normal" text-decoration="none" x="400" y="480">UNREGISTERED</text><text fill="#eeeeee" stroke="none" font-family="Arial" font-size="24px" font-style="normal" font-weight="normal" text-decoration="none" x="400" y="510">UNREGISTERED</text><text fill="#eeeeee" stroke="none" font-family="Arial" font-size="24px" font-style="normal" font-weight="normal" text-decoration="none" x="600" y="0">UNREGISTERED</text><text fill="#eeeeee" stroke="none" font-family="Arial" font-size="24px" font-style="normal" font-weight="normal" text-decoration="none" x="600" y="30">UNREGISTERED</text><text fill="#eeeeee" stroke="none" font-family="Arial" font-size="24px" font-style="normal" font-weight="normal" text-decoration="none" x="600" y="60">UNREGISTERED</text><text fill="#eeeeee" stroke="none" font-family="Arial" font-size="24px" font-style="normal" font-weight="normal" text-decoration="none" x="600" y="90">UNREGISTERED</text><text fill="#eeeeee" stroke="none" font-family="Arial" font-size="24px" font-style="normal" font-weight="normal" text-decoration="none" x="600" y="120">UNREGISTERED</text><text fill="#eeeeee" stroke="none" font-family="Arial" font-size="24px" font-style="normal" font-weight="normal" text-decoration="none" x="600" y="150">UNREGISTERED</text><text fill="#eeeeee" stroke="none" font-family="Arial" font-size="24px" font-style="normal" font-weight="normal" text-decoration="none" x="600" y="180">UNREGISTERED</text><text fill="#eeeeee" stroke="none" font-family="Arial" font-size="24px" font-style="normal" font-weight="normal" text-decoration="none" x="600" y="210">UNREGISTERED</text><text fill="#eeeeee" stroke="none" font-family="Arial" font-size="24px" font-style="normal" font-weight="normal" text-decoration="none" x="600" y="240">UNREGISTERED</text><text fill="#eeeeee" stroke="none" font-family="Arial" font-size="24px" font-style="normal" font-weight="normal" text-decoration="none" x="600" y="270">UNREGISTERED</text><text fill="#eeeeee" stroke="none" font-family="Arial" font-size="24px" font-style="normal" font-weight="normal" text-decoration="none" x="600" y="300">UNREGISTERED</text><text fill="#eeeeee" stroke="none" font-family="Arial" font-size="24px" font-style="normal" font-weight="normal" text-decoration="none" x="600" y="330">UNREGISTERED</text><text fill="#eeeeee" stroke="none" font-family="Arial" font-size="24px" font-style="normal" font-weight="normal" text-decoration="none" x="600" y="360">UNREGISTERED</text><text fill="#eeeeee" stroke="none" font-family="Arial" font-size="24px" font-style="normal" font-weight="normal" text-decoration="none" x="600" y="390">UNREGISTERED</text><text fill="#eeeeee" stroke="none" font-family="Arial" font-size="24px" font-style="normal" font-weight="normal" text-decoration="none" x="600" y="420">UNREGISTERED</text><text fill="#eeeeee" stroke="none" font-family="Arial" font-size="24px" font-style="normal" font-weight="normal" text-decoration="none" x="600" y="450">UNREGISTERED</text><text fill="#eeeeee" stroke="none" font-family="Arial" font-size="24px" font-style="normal" font-weight="normal" text-decoration="none" x="600" y="480">UNREGISTERED</text><text fill="#eeeeee" stroke="none" font-family="Arial" font-size="24px" font-style="normal" font-weight="normal" text-decoration="none" x="600" y="510">UNREGISTERED</text><text fill="#eeeeee" stroke="none" font-family="Arial" font-size="24px" font-style="normal" font-weight="normal" text-decoration="none" x="800" y="0">UNREGISTERED</text><text fill="#eeeeee" stroke="none" font-family="Arial" font-size="24px" font-style="normal" font-weight="normal" text-decoration="none" x="800" y="30">UNREGISTERED</text><text fill="#eeeeee" stroke="none" font-family="Arial" font-size="24px" font-style="normal" font-weight="normal" text-decoration="none" x="800" y="60">UNREGISTERED</text><text fill="#eeeeee" stroke="none" font-family="Arial" font-size="24px" font-style="normal" font-weight="normal" text-decoration="none" x="800" y="90">UNREGISTERED</text><text fill="#eeeeee" stroke="none" font-family="Arial" font-size="24px" font-style="normal" font-weight="normal" text-decoration="none" x="800" y="120">UNREGISTERED</text><text fill="#eeeeee" stroke="none" font-family="Arial" font-size="24px" font-style="normal" font-weight="normal" text-decoration="none" x="800" y="150">UNREGISTERED</text><text fill="#eeeeee" stroke="none" font-family="Arial" font-size="24px" font-style="normal" font-weight="normal" text-decoration="none" x="800" y="180">UNREGISTERED</text><text fill="#eeeeee" stroke="none" font-family="Arial" font-size="24px" font-style="normal" font-weight="normal" text-decoration="none" x="800" y="210">UNREGISTERED</text><text fill="#eeeeee" stroke="none" font-family="Arial" font-size="24px" font-style="normal" font-weight="normal" text-decoration="none" x="800" y="240">UNREGISTERED</text><text fill="#eeeeee" stroke="none" font-family="Arial" font-size="24px" font-style="normal" font-weight="normal" text-decoration="none" x="800" y="270">UNREGISTERED</text><text fill="#eeeeee" stroke="none" font-family="Arial" font-size="24px" font-style="normal" font-weight="normal" text-decoration="none" x="800" y="300">UNREGISTERED</text><text fill="#eeeeee" stroke="none" font-family="Arial" font-size="24px" font-style="normal" font-weight="normal" text-decoration="none" x="800" y="330">UNREGISTERED</text><text fill="#eeeeee" stroke="none" font-family="Arial" font-size="24px" font-style="normal" font-weight="normal" text-decoration="none" x="800" y="360">UNREGISTERED</text><text fill="#eeeeee" stroke="none" font-family="Arial" font-size="24px" font-style="normal" font-weight="normal" text-decoration="none" x="800" y="390">UNREGISTERED</text><text fill="#eeeeee" stroke="none" font-family="Arial" font-size="24px" font-style="normal" font-weight="normal" text-decoration="none" x="800" y="420">UNREGISTERED</text><text fill="#eeeeee" stroke="none" font-family="Arial" font-size="24px" font-style="normal" font-weight="normal" text-decoration="none" x="800" y="450">UNREGISTERED</text><text fill="#eeeeee" stroke="none" font-family="Arial" font-size="24px" font-style="normal" font-weight="normal" text-decoration="none" x="800" y="480">UNREGISTERED</text><text fill="#eeeeee" stroke="none" font-family="Arial" font-size="24px" font-style="normal" font-weight="normal" text-decoration="none" x="800" y="510">UNREGISTERED</text><text fill="#eeeeee" stroke="none" font-family="Arial" font-size="24px" font-style="normal" font-weight="normal" text-decoration="none" x="1000" y="0">UNREGISTERED</text><text fill="#eeeeee" stroke="none" font-family="Arial" font-size="24px" font-style="normal" font-weight="normal" text-decoration="none" x="1000" y="30">UNREGISTERED</text><text fill="#eeeeee" stroke="none" font-family="Arial" font-size="24px" font-style="normal" font-weight="normal" text-decoration="none" x="1000" y="60">UNREGISTERED</text><text fill="#eeeeee" stroke="none" font-family="Arial" font-size="24px" font-style="normal" font-weight="normal" text-decoration="none" x="1000" y="90">UNREGISTERED</text><text fill="#eeeeee" stroke="none" font-family="Arial" font-size="24px" font-style="normal" font-weight="normal" text-decoration="none" x="1000" y="120">UNREGISTERED</text><text fill="#eeeeee" stroke="none" font-family="Arial" font-size="24px" font-style="normal" font-weight="normal" text-decoration="none" x="1000" y="150">UNREGISTERED</text><text fill="#eeeeee" stroke="none" font-family="Arial" font-size="24px" font-style="normal" font-weight="normal" text-decoration="none" x="1000" y="180">UNREGISTERED</text><text fill="#eeeeee" stroke="none" font-family="Arial" font-size="24px" font-style="normal" font-weight="normal" text-decoration="none" x="1000" y="210">UNREGISTERED</text><text fill="#eeeeee" stroke="none" font-family="Arial" font-size="24px" font-style="normal" font-weight="normal" text-decoration="none" x="1000" y="240">UNREGISTERED</text><text fill="#eeeeee" stroke="none" font-family="Arial" font-size="24px" font-style="normal" font-weight="normal" text-decoration="none" x="1000" y="270">UNREGISTERED</text><text fill="#eeeeee" stroke="none" font-family="Arial" font-size="24px" font-style="normal" font-weight="normal" text-decoration="none" x="1000" y="300">UNREGISTERED</text><text fill="#eeeeee" stroke="none" font-family="Arial" font-size="24px" font-style="normal" font-weight="normal" text-decoration="none" x="1000" y="330">UNREGISTERED</text><text fill="#eeeeee" stroke="none" font-family="Arial" font-size="24px" font-style="normal" font-weight="normal" text-decoration="none" x="1000" y="360">UNREGISTERED</text><text fill="#eeeeee" stroke="none" font-family="Arial" font-size="24px" font-style="normal" font-weight="normal" text-decoration="none" x="1000" y="390">UNREGISTERED</text><text fill="#eeeeee" stroke="none" font-family="Arial" font-size="24px" font-style="normal" font-weight="normal" text-decoration="none" x="1000" y="420">UNREGISTERED</text><text fill="#eeeeee" stroke="none" font-family="Arial" font-size="24px" font-style="normal" font-weight="normal" text-decoration="none" x="1000" y="450">UNREGISTERED</text><text fill="#eeeeee" stroke="none" font-family="Arial" font-size="24px" font-style="normal" font-weight="normal" text-decoration="none" x="1000" y="480">UNREGISTERED</text><text fill="#eeeeee" stroke="none" font-family="Arial" font-size="24px" font-style="normal" font-weight="normal" text-decoration="none" x="1000" y="510">UNREGISTERED</text><g transform="translate(-22,-94) scale(1,1)"><path fill="#C0C0C0" stroke="none" d="M 577 390 L 669 390 Q 679 390 679 400 L 679 476 Q 679 486 669 486 L 577 486 Q 567 486 567 476 L 567 400 Q 567 390 577 390 Z" opacity="0.2"/></g><g transform="translate(-22,-94) scale(1,1)"><path fill="#ffffff" stroke="none" d="M 570 383 L 662 383 Q 672 383 672 393 L 672 469 Q 672 479 662 479 L 570 479 Q 560 479 560 469 L 560 393 Q 560 383 570 383 Z"/></g><g transform="translate(-22,-94) scale(1,1)"><path fill="none" stroke="#000000" d="M 570 383 L 662 383 Q 672 383 672 393 L 672 469 Q 672 479 662 479 L 570 479 Q 560 479 560 469 L 560 393 Q 560 383 570 383 Z" stroke-miterlimit="10"/></g><g transform="translate(-22,-94) scale(1,1)"><g><path fill="none" stroke="none"/><text fill="#000000" stroke="none" font-family="Arial" font-size="13px" font-style="normal" font-weight="bold" text-decoration="none" x="595.40185546875" y="402.5">Attente</text></g></g><g transform="translate(-22,-94) scale(1,1)"><path fill="#C0C0C0" stroke="none" d="M 281 383 L 332 383 Q 342 383 342 393 L 342 420 Q 342 430 332 430 L 281 430 Q 271 430 271 420 L 271 393 Q 271 383 281 383 Z" opacity="0.2"/></g><g transform="translate(-22,-94) scale(1,1)"><path fill="#ffffff" stroke="none" d="M 274 376 L 325 376 Q 335 376 335 386 L 335 413 Q 335 423 325 423 L 274 423 Q 264 423 264 413 L 264 386 Q 264 376 274 376 Z"/></g><g transform="translate(-22,-94) scale(1,1)"><path fill="none" stroke="#000000" d="M 274 376 L 325 376 Q 335 376 335 386 L 335 413 Q 335 423 325 423 L 274 423 Q 264 423 264 413 L 264 386 Q 264 376 274 376 Z" stroke-miterlimit="10"/></g><g transform="translate(-22,-94) scale(1,1)"><g><path fill="none" stroke="none"/><text fill="#000000" stroke="none" font-family="Arial" font-size="13px" font-style="normal" font-weight="bold" text-decoration="none" x="281.7900390625" y="395.5">Lobby</text></g></g><g transform="translate(-22,-94) scale(1,1)"><path fill="none" stroke="#000000" d="M 293 268 Q 272 327 290 375" stroke-miterlimit="10"/></g><g transform="translate(-22,-94) scale(1,1)"><path fill="none" stroke="#000000" d="M 282.49015232979445 366.96245137057895 L 290 375 L 290.37314092669993 364.0063306467394" stroke-miterlimit="10"/></g><g transform="translate(-22,-94) scale(1,1)"><g><path fill="none" stroke="none"/><text fill="#000000" stroke="none" font-family="Arial" font-size="13px" font-style="normal" font-weight="normal" text-decoration="none" x="226.029541015625" y="356.5">rejoindre</text></g></g><g transform="translate(-22,-94) scale(1,1)"><path fill="none" stroke="#000000" d="M 309 375 Q 328 328 302 268" stroke-miterlimit="10"/></g><g transform="translate(-22,-94) scale(1,1)"><path fill="none" stroke="#000000" d="M 309.9032218065249 275.65108391516316 L 302 268 L 302.178288412776 278.9985550524544" stroke-miterlimit="10"/></g><g transform="translate(-22,-94) scale(1,1)"><g><path fill="none" stroke="none"/><text fill="#000000" stroke="none" font-family="Arial" font-size="13px" font-style="normal" font-weight="normal" text-decoration="none" x="327.94091796875" y="322.5">quitter</text></g></g><g transform="translate(-22,-94) scale(1,1)"><path fill="none" stroke="#000000" d="M 336 403 L 559 425" stroke-miterlimit="10"/></g><g transform="translate(-22,-94) scale(1,1)"><path fill="none" stroke="#000000" d="M 548.4731400078044 428.1914289440174 L 559 425 L 549.2997048669274 419.8130669629068" stroke-miterlimit="10"/></g><g transform="translate(-22,-94) scale(1,1)"><g><path fill="none" stroke="none"/><text fill="#000000" stroke="none" font-family="Arial" font-size="13px" font-style="normal" font-weight="normal" text-decoration="none" x="394.5" y="405.5">partie commencée</text></g></g><g transform="translate(-22,-94) scale(1,1)"><path fill="#C0C0C0" stroke="none" d="M 841 407 L 880 407 Q 890 407 890 417 L 890 453 Q 890 463 880 463 L 841 463 Q 831 463 831 453 L 831 417 Q 831 407 841 407 Z" opacity="0.2"/></g><g transform="translate(-22,-94) scale(1,1)"><path fill="#ffffff" stroke="none" d="M 834 400 L 873 400 Q 883 400 883 410 L 883 446 Q 883 456 873 456 L 834 456 Q 824 456 824 446 L 824 410 Q 824 400 834 400 Z"/></g><g transform="translate(-22,-94) scale(1,1)"><path fill="none" stroke="#000000" d="M 834 400 L 873 400 Q 883 400 883 410 L 883 446 Q 883 456 873 456 L 834 456 Q 824 456 824 446 L 824 410 Q 824 400 834 400 Z" stroke-miterlimit="10"/></g><g transform="translate(-22,-94) scale(1,1)"><g><path fill="none" stroke="none"/><text fill="#000000" stroke="none" font-family="Arial" font-size="13px" font-style="normal" font-weight="bold" text-decoration="none" x="837.240478515625" y="419.5">Jouer</text></g></g><g transform="translate(-22,-94) scale(1,1)"><path fill="#C0C0C0" stroke="none" d="M 295 264.5 C 295 259.2532944 299.2532944 255 304.5 255 C 309.7467056 255 314 259.2532944 314 264.5 C 314 269.7467056 309.7467056 274 304.5 274 C 299.2532944 274 295 269.7467056 295 264.5 Z" opacity="0.2"/></g><g transform="translate(-22,-94) scale(1,1)"><path fill="#000000" stroke="none" d="M 288 257.5 C 288 252.2532944 292.2532944 248 297.5 248 C 302.7467056 248 307 252.2532944 307 257.5 C 307 262.7467056 302.7467056 267 297.5 267 C 292.2532944 267 288 262.7467056 288 257.5 Z"/></g><g transform="translate(-22,-94) scale(1,1)"><path fill="none" stroke="#000000" d="M 673 446 Q 738 464 823 437" stroke-miterlimit="10"/></g><g transform="translate(-22,-94) scale(1,1)"><path fill="none" stroke="#000000" d="M 814.5886225660236 444.08863383616284 L 823 437 L 812.0398369224166 436.06467903221494" stroke-miterlimit="10"/></g><g transform="translate(-22,-94) scale(1,1)"><g><path fill="none" stroke="none"/><text fill="#000000" stroke="none" font-family="Arial" font-size="13px" font-style="normal" font-weight="normal" text-decoration="none" x="703.5" y="451.5">Tour joueur</text></g></g><g transform="translate(-22,-94) scale(1,1)"><path fill="none" stroke="#000000" d="M 823 424 Q 753 416 673 425" stroke-miterlimit="10"/></g><g transform="translate(-22,-94) scale(1,1)"><path fill="none" stroke="#000000" d="M 682.6283661797019 419.6807364504498 L 673 425 L 683.5695703442198 428.04699569060904" stroke-miterlimit="10"/></g><g transform="translate(-22,-94) scale(1,1)"><g><path fill="none" stroke="none"/><text fill="#000000" stroke="none" font-family="Arial" font-size="13px" font-style="normal" font-weight="normal" text-decoration="none" x="719.5" y="411.5">Jouer carte</text></g></g><g transform="translate(-22,-94) scale(1,1)"><path fill="none" stroke="#000000" d="M 823 408 Q 752 360 673 401" stroke-miterlimit="10"/></g><g transform="translate(-22,-94) scale(1,1)"><path fill="none" stroke="#000000" d="M 680.0811382621969 392.5823114270216 L 673 401 L 683.9593255555885 400.05491621184933" stroke-miterlimit="10"/></g><g transform="translate(-22,-94) scale(1,1)"><g><path fill="none" stroke="none"/><text fill="#000000" stroke="none" font-family="Arial" font-size="13px" font-style="normal" font-weight="normal" text-decoration="none" x="728.37451171875" y="379.5">Jouer wild</text></g></g><g transform="translate(-22,-94) scale(1,1)"><path fill="none" stroke="#000000" d="M 872 400 L 872 376 L 904 376 L 904 416 L 883 416" stroke-miterlimit="10"/></g><g transform="translate(-22,-94) scale(1,1)"><path fill="none" stroke="#000000" d="M 893.1626748576241 411.790482243984 L 883 416 L 893.1626748576241 420.209517756016" stroke-miterlimit="10"/></g><g transform="translate(-22,-94) scale(1,1)"><g><path fill="none" stroke="none"/><text fill="#000000" stroke="none" font-family="Arial" font-size="13px" font-style="normal" font-weight="normal" text-decoration="none" x="911.5" y="403.5">Pioche</text></g></g><g transform="translate(-22,-94) scale(1,1)"><path fill="none" stroke="#000000" d="M 864 456 L 864 472 L 896 472 L 896 440 L 883 440" stroke-miterlimit="10"/></g><g transform="translate(-22,-94) scale(1,1)"><path fill="none" stroke="#000000" d="M 893.1626748576241 435.790482243984 L 883 440 L 893.1626748576241 444.209517756016" stroke-miterlimit="10"/></g><g transform="translate(-22,-94) scale(1,1)"><g><path fill="none" stroke="none"/><text fill="#000000" stroke="none" font-family="Arial" font-size="13px" font-style="normal" font-weight="normal" text-decoration="none" x="902.5" y="467.5">contre uno</text></g></g><g transform="translate(-22,-94) scale(1,1)"><path fill="none" stroke="#000000" d="M 884 426 Q 1016 416 1070 368" stroke-miterlimit="10"/></g><g transform="translate(-22,-94) scale(1,1)"><path fill="none" stroke="#000000" d="M 1065.200973484669 377.8979464792022 L 1070 368 L 1059.6076707326501 371.6054808831808" stroke-miterlimit="10"/></g><g transform="translate(-22,-94) scale(1,1)"><g><path fill="none" stroke="none"/><text fill="#000000" stroke="none" font-family="Arial" font-size="13px" font-style="normal" font-weight="normal" text-decoration="none" x="974.5" y="426.5">Jouer dernière carte</text></g></g><g transform="translate(-22,-94) scale(1,1)"><path fill="none" stroke="#000000" d="M 560 440 L 404 440 L 404 520" stroke-miterlimit="10"/></g><g transform="translate(-22,-94) scale(1,1)"><path fill="none" stroke="#000000" d="M 399.790482243984 509.83732514237585 L 404 520 L 408.209517756016 509.83732514237585" stroke-miterlimit="10"/></g><g transform="translate(-22,-94) scale(1,1)"><g><path fill="none" stroke="none"/><text fill="#000000" stroke="none" font-family="Arial" font-size="13px" font-style="normal" font-weight="normal" text-decoration="none" x="294.49462890625" y="482.5">Autre joueur joue</text><text fill="#000000" stroke="none" font-family="Arial" font-size="13px" font-style="normal" font-weight="normal" text-decoration="none" x="303.8955078125" y="495.5">dernière carte</text></g></g><g transform="translate(-22,-94) scale(1,1)"><path fill="#C0C0C0" stroke="none" d="M 601 255 L 647.7890625 255 Q 657.7890625 255 657.7890625 265 L 657.7890625 284 Q 657.7890625 294 647.7890625 294 L 601 294 Q 591 294 591 284 L 591 265 Q 591 255 601 255 Z" opacity="0.2"/></g><g transform="translate(-22,-94) scale(1,1)"><path fill="#ffffff" stroke="none" d="M 594 248 L 640.7890625 248 Q 650.7890625 248 650.7890625 258 L 650.7890625 277 Q 650.7890625 287 640.7890625 287 L 594 287 Q 584 287 584 277 L 584 258 Q 584 248 594 248 Z"/></g><g transform="translate(-22,-94) scale(1,1)"><path fill="none" stroke="#000000" d="M 594 248 L 640.7890625 248 Q 650.7890625 248 650.7890625 258 L 650.7890625 277 Q 650.7890625 287 640.7890625 287 L 594 287 Q 584 287 584 277 L 584 258 Q 584 248 594 248 Z" stroke-miterlimit="10"/></g><g transform="translate(-22,-94) scale(1,1)"><g><path fill="none" stroke="none"/><text fill="#000000" stroke="none" font-family="Arial" font-size="13px" font-style="normal" font-weight="bold" text-decoration="none" x="591.378662109375" y="267.5">Conteste</text></g></g><g transform="translate(-22,-94) scale(1,1)"><path fill="none" stroke="#000000" d="M 669 382 Q 728 328 652 286" stroke-miterlimit="10"/></g><g transform="translate(-22,-94) scale(1,1)"><path fill="none" stroke="#000000" d="M 662.9308804220549 287.2311999020209 L 652 286 L 658.8587098710591 294.59988947048953" stroke-miterlimit="10"/></g><g transform="translate(-22,-94) scale(1,1)"><g><path fill="none" stroke="none"/><text fill="#000000" stroke="none" font-family="Arial" font-size="13px" font-style="normal" font-weight="normal" text-decoration="none" x="694.5" y="323.5">plus quatre</text></g></g><g transform="translate(-22,-94) scale(1,1)"><path fill="none" stroke="#000000" d="M 634 288 Q 672 335 645 382" stroke-miterlimit="10"/></g><g transform="translate(-22,-94) scale(1,1)"><path fill="none" stroke="#000000" d="M 646.4121807540146 371.0910245431576 L 645 382 L 653.7123731087557 375.284752066094" stroke-miterlimit="10"/></g><g transform="translate(-22,-94) scale(1,1)"><g><path fill="none" stroke="none"/><text fill="#000000" stroke="none" font-family="Arial" font-size="13px" font-style="normal" font-weight="normal" text-decoration="none" x="598.5" y="345.5">conteste</text><text fill="#000000" stroke="none" font-family="Arial" font-size="13px" font-style="normal" font-weight="normal" text-decoration="none" x="612.591796875" y="358.5">pas</text></g></g><g transform="translate(-22,-94) scale(1,1)"><path fill="none" stroke="#000000" d="M 595 288 Q 552 328 586 382" stroke-miterlimit="10"/></g><g transform="translate(-22,-94) scale(1,1)"><path fill="none" stroke="#000000" d="M 577.0229598142705 375.64289771170877 L 586 382 L 584.1474241464338 371.1571238729393" stroke-miterlimit="10"/></g><g transform="translate(-22,-94) scale(1,1)"><g><path fill="none" stroke="none"/><text fill="#000000" stroke="none" font-family="Arial" font-size="13px" font-style="normal" font-weight="normal" text-decoration="none" x="518.42822265625" y="331.5">conteste</text><text fill="#000000" stroke="none" font-family="Arial" font-size="13px" font-style="normal" font-weight="normal" text-decoration="none" x="517.6982421875" y="344.5">et gagne</text></g></g><g transform="translate(-22,-94) scale(1,1)"><path fill="none" stroke="#000000" d="M 583 277 Q 416 328 559 402" stroke-miterlimit="10"/></g><g transform="translate(-22,-94) scale(1,1)"><path fill="none" stroke="#000000" d="M 548.0395610601446 401.0679172538329 L 559 402 L 551.908881331289 393.59071727040543" stroke-miterlimit="10"/></g><g transform="translate(-22,-94) scale(1,1)"><g><path fill="none" stroke="none"/><text fill="#000000" stroke="none" font-family="Arial" font-size="13px" font-style="normal" font-weight="normal" text-decoration="none" x="439.5" y="323.5">conteste</text><text fill="#000000" stroke="none" font-family="Arial" font-size="13px" font-style="normal" font-weight="normal" text-decoration="none" x="443.83544921875" y="336.5">et perd</text></g></g><g transform="translate(-22,-94) scale(1,1)"><path fill="none" stroke="#000000" d="M 568 479 L 568 496 L 536 496 L 536 448 L 560 448" stroke-miterlimit="10"/></g><g transform="translate(-22,-94) scale(1,1)"><path fill="none" stroke="#000000" d="M 549.8373251423759 452.209517756016 L 560 448 L 549.8373251423758 443.790482243984" stroke-miterlimit="10"/></g><g transform="translate(-22,-94) scale(1,1)"><g><path fill="none" stroke="none"/><text fill="#000000" stroke="none" font-family="Arial" font-size="13px" font-style="normal" font-weight="normal" text-decoration="none" x="455.339599609375" y="468.5">carte jouée</text><text fill="#000000" stroke="none" font-family="Arial" font-size="13px" font-style="normal" font-weight="normal" text-decoration="none" x="449.550537109375" y="481.5">par quelquun</text><text fill="#000000" stroke="none" font-family="Arial" font-size="13px" font-style="normal" font-weight="normal" text-decoration="none" x="469.069580078125" y="494.5">dautre</text></g></g><g transform="translate(-22,-94) scale(1,1)"><path fill="none" stroke="#000000" d="M 648 479 L 648 504 L 696 504 L 696 464 L 672 464" stroke-miterlimit="10"/></g><g transform="translate(-22,-94) scale(1,1)"><path fill="none" stroke="#000000" d="M 682.1626748576241 459.790482243984 L 672 464 L 682.1626748576241 468.209517756016" stroke-miterlimit="10"/></g><g transform="translate(-22,-94) scale(1,1)"><g><path fill="none" stroke="none"/><text fill="#000000" stroke="none" font-family="Arial" font-size="13px" font-style="normal" font-weight="normal" text-decoration="none" x="646.671875" y="523.5">uno / contre</text><text fill="#000000" stroke="none" font-family="Arial" font-size="13px" font-style="normal" font-weight="normal" text-decoration="none" x="670.155029296875" y="536.5">uno</text></g></g><g transform="translate(-22,-94) scale(1,1)"><path fill="#C0C0C0" stroke="none" d="M 601 591 L 650.6708984375 591 Q 660.6708984375 591 660.6708984375 601 L 660.6708984375 620 Q 660.6708984375 630 650.6708984375 630 L 601 630 Q 591 630 591 620 L 591 601 Q 591 591 601 591 Z" opacity="0.2"/></g><g transform="translate(-22,-94) scale(1,1)"><path fill="#ffffff" stroke="none" d="M 594 584 L 643.6708984375 584 Q 653.6708984375 584 653.6708984375 594 L 653.6708984375 613 Q 653.6708984375 623 643.6708984375 623 L 594 623 Q 584 623 584 613 L 584 594 Q 584 584 594 584 Z"/></g><g transform="translate(-22,-94) scale(1,1)"><path fill="none" stroke="#000000" d="M 594 584 L 643.6708984375 584 Q 653.6708984375 584 653.6708984375 594 L 653.6708984375 613 Q 653.6708984375 623 643.6708984375 623 L 594 623 Q 584 623 584 613 L 584 594 Q 584 584 594 584 Z" stroke-miterlimit="10"/></g><g transform="translate(-22,-94) scale(1,1)"><g><path fill="none" stroke="none"/><text fill="#000000" stroke="none" font-family="Arial" font-size="13px" font-style="normal" font-weight="bold" text-decoration="none" x="590.65185546875" y="603.5">Contrable</text></g></g><g transform="translate(-22,-94) scale(1,1)"><path fill="none" stroke="#000000" d="M 597 480 Q 576 536 605 583" stroke-miterlimit="10"/></g><g transform="translate(-22,-94) scale(1,1)"><path fill="none" stroke="#000000" d="M 596.08105376298 576.5616463268049 L 605 583 L 603.2459561767585 572.1407490927712" stroke-miterlimit="10"/></g><g transform="translate(-22,-94) scale(1,1)"><g><path fill="none" stroke="none"/><text fill="#000000" stroke="none" font-family="Arial" font-size="13px" font-style="normal" font-weight="normal" text-decoration="none" x="513.063232421875" y="538.5">plus deux /</text><text fill="#000000" stroke="none" font-family="Arial" font-size="13px" font-style="normal" font-weight="normal" text-decoration="none" x="532.94091796875" y="551.5">skip</text></g></g><g transform="translate(-22,-94) scale(1,1)"><path fill="none" stroke="#000000" d="M 622 583 Q 632 534 624 480" stroke-miterlimit="10"/></g><g transform="translate(-22,-94) scale(1,1)"><path fill="none" stroke="#000000" d="M 629.6533959325635 489.43605396496196 L 624 480 L 621.3252568543812 490.6698523469149" stroke-miterlimit="10"/></g><g transform="translate(-22,-94) scale(1,1)"><g><path fill="none" stroke="none"/><text fill="#000000" stroke="none" font-family="Arial" font-size="13px" font-style="normal" font-weight="normal" text-decoration="none" x="632.563232421875" y="563.5">plus deux /</text><text fill="#000000" stroke="none" font-family="Arial" font-size="13px" font-style="normal" font-weight="normal" text-decoration="none" x="652.44091796875" y="576.5">skip</text></g></g><g transform="translate(-22,-94) scale(1,1)"><path fill="#C0C0C0" stroke="none" d="M 1081 335 L 1120 335 Q 1130 335 1130 345 L 1130 364 Q 1130 374 1120 374 L 1081 374 Q 1071 374 1071 364 L 1071 345 Q 1071 335 1081 335 Z" opacity="0.2"/></g><g transform="translate(-22,-94) scale(1,1)"><path fill="#ffffff" stroke="none" d="M 1074 328 L 1113 328 Q 1123 328 1123 338 L 1123 357 Q 1123 367 1113 367 L 1074 367 Q 1064 367 1064 357 L 1064 338 Q 1064 328 1074 328 Z"/></g><g transform="translate(-22,-94) scale(1,1)"><path fill="none" stroke="#000000" d="M 1074 328 L 1113 328 Q 1123 328 1123 338 L 1123 357 Q 1123 367 1113 367 L 1074 367 Q 1064 367 1064 357 L 1064 338 Q 1064 328 1074 328 Z" stroke-miterlimit="10"/></g><g transform="translate(-22,-94) scale(1,1)"><g><path fill="none" stroke="none"/><text fill="#000000" stroke="none" font-family="Arial" font-size="13px" font-style="normal" font-weight="bold" text-decoration="none" x="1071.943359375" y="347.5">Victoire</text></g></g><g transform="translate(-22,-94) scale(1,1)"><path fill="#C0C0C0" stroke="none" d="M 393 527 L 432 527 Q 442 527 442 537 L 442 556 Q 442 566 432 566 L 393 566 Q 383 566 383 556 L 383 537 Q 383 527 393 527 Z" opacity="0.2"/></g><g transform="translate(-22,-94) scale(1,1)"><path fill="#ffffff" stroke="none" d="M 386 520 L 425 520 Q 435 520 435 530 L 435 549 Q 435 559 425 559 L 386 559 Q 376 559 376 549 L 376 530 Q 376 520 386 520 Z"/></g><g transform="translate(-22,-94) scale(1,1)"><path fill="none" stroke="#000000" d="M 386 520 L 425 520 Q 435 520 435 530 L 435 549 Q 435 559 425 559 L 386 559 Q 376 559 376 549 L 376 530 Q 376 520 386 520 Z" stroke-miterlimit="10"/></g><g transform="translate(-22,-94) scale(1,1)"><g><path fill="none" stroke="none"/><text fill="#000000" stroke="none" font-family="Arial" font-size="13px" font-style="normal" font-weight="bold" text-decoration="none" x="384.905029296875" y="539.5">Défaite</text></g></g><g transform="translate(-22,-94) scale(1,1)"><path fill="none" stroke="#000000" d="M 375 535 Q 32 488 287 266" stroke-miterlimit="10"/></g><g transform="translate(-22,-94) scale(1,1)"><path fill="none" stroke="#000000" d="M 282.09911841640695 275.84791143865533 L 287 266 L 276.57102843965134 269.49807835724687" stroke-miterlimit="10"/></g><g transform="translate(-22,-94) scale(1,1)"><g><path fill="none" stroke="none"/><text fill="#000000" stroke="none" font-family="Arial" font-size="13px" font-style="normal" font-weight="normal" text-decoration="none" x="141.5" y="467.5">rejouer</text></g></g><g transform="translate(-22,-94) scale(1,1)"><path fill="none" stroke="#000000" d="M 1063 329 Q 696 104 308 253" stroke-miterlimit="10"/></g><g transform="translate(-22,-94) scale(1,1)"><path fill="none" stroke="#000000" d="M 315.97808469438115 245.42701085374597 L 308 253 L 318.9962697674459 253.28644580910915" stroke-miterlimit="10"/></g><g transform="translate(-22,-94) scale(1,1)"><g><path fill="none" stroke="none"/><text fill="#000000" stroke="none" font-family="Arial" font-size="13px" font-style="normal" font-weight="normal" text-decoration="none" x="678.5" y="187.5">rejouer</text></g></g></g></svg>