<svg version="1.1" xmlns="http://www.w3.org/2000/svg" xmlns:xlink="http://www.w3.org/1999/xlink" width="975" height="763"><defs/><g><g transform="translate(-46,2) scale(1,1)"><path fill="#C0C0C0" stroke="none" d="M 465 518 L 565 518 Q 575 518 575 528 L 575 604 Q 575 614 565 614 L 465 614 Q 455 614 455 604 L 455 528 Q 455 518 465 518 Z" opacity="0.2"/></g><g transform="translate(-46,2) scale(1,1)"><path fill="#ffffff" stroke="none" d="M 458 511 L 558 511 Q 568 511 568 521 L 568 597 Q 568 607 558 607 L 458 607 Q 448 607 448 597 L 448 521 Q 448 511 458 511 Z"/></g><g transform="translate(-46,2) scale(1,1)"><path fill="none" stroke="#000000" d="M 458 511 L 558 511 Q 568 511 568 521 L 568 597 Q 568 607 558 607 L 458 607 Q 448 607 448 597 L 448 521 Q 448 511 458 511 Z" stroke-miterlimit="10"/></g><g transform="translate(-46,2) scale(1,1)"><g><path fill="none" stroke="none"/><text fill="#000000" stroke="none" font-family="Arial" font-size="13px" font-style="normal" font-weight="bold" text-decoration="none" x="487.40185546875" y="530.5">Attente</text></g></g><g transform="translate(-46,2) scale(1,1)"><path fill="#C0C0C0" stroke="none" d="M 169 511 L 220 511 Q 230 511 230 521 L 230 548 Q 230 558 220 558 L 169 558 Q 159 558 159 548 L 159 521 Q 159 511 169 511 Z" opacity="0.2"/></g><g transform="translate(-46,2) scale(1,1)"><path fill="#ffffff" stroke="none" d="M 162 504 L 213 504 Q 223 504 223 514 L 223 541 Q 223 551 213 551 L 162 551 Q 152 551 152 541 L 152 514 Q 152 504 162 504 Z"/></g><g transform="translate(-46,2) scale(1,1)"><path fill="none" stroke="#000000" d="M 162 504 L 213 504 Q 223 504 223 514 L 223 541 Q 223 551 213 551 L 162 551 Q 152 551 152 541 L 152 514 Q 152 504 162 504 Z" stroke-miterlimit="10"/></g><g transform="translate(-46,2) scale(1,1)"><g><path fill="none" stroke="none"/><text fill="#000000" stroke="none" font-family="Arial" font-size="13px" font-style="normal" font-weight="bold" text-decoration="none" x="169.7900390625" y="523.5">Lobby</text></g></g><g transform="translate(-46,2) scale(1,1)"><path fill="none" stroke="#000000" d="M 181 396 Q 160 455 178 503" stroke-miterlimit="10"/></g><g transform="translate(-46,2) scale(1,1)"><path fill="none" stroke="#000000" d="M 170.49015232979445 494.96245137057895 L 178 503 L 178.37314092669993 492.0063306467394" stroke-miterlimit="10"/></g><g transform="translate(-46,2) scale(1,1)"><g><path fill="none" stroke="none"/><text fill="#000000" stroke="none" font-family="Arial" font-size="13px" font-style="normal" font-weight="normal" text-decoration="none" x="114.029541015625" y="427.5">rejoindre</text></g></g><g transform="translate(-46,2) scale(1,1)"><path fill="none" stroke="#000000" d="M 197 503 Q 216 456 190 396" stroke-miterlimit="10"/></g><g transform="translate(-46,2) scale(1,1)"><path fill="none" stroke="#000000" d="M 197.90322180652495 403.65108391516316 L 190 396 L 190.178288412776 406.9985550524544" stroke-miterlimit="10"/></g><g transform="translate(-46,2) scale(1,1)"><g><path fill="none" stroke="none"/><text fill="#000000" stroke="none" font-family="Arial" font-size="13px" font-style="normal" font-weight="normal" text-decoration="none" x="200.94091796875" y="420.5">quitter</text></g></g><g transform="translate(-46,2) scale(1,1)"><path fill="none" stroke="#000000" d="M 224 531 L 447 553" stroke-miterlimit="10"/></g><g transform="translate(-46,2) scale(1,1)"><path fill="none" stroke="#000000" d="M 436.47314000780443 556.1914289440174 L 447 553 L 437.2997048669274 547.8130669629069" stroke-miterlimit="10"/></g><g transform="translate(-46,2) scale(1,1)"><g><path fill="none" stroke="none"/><text fill="#000000" stroke="none" font-family="Arial" font-size="13px" font-style="normal" font-weight="normal" text-decoration="none" x="282.5" y="533.5">partie commencée</text></g></g><g transform="translate(-46,2) scale(1,1)"><path fill="#C0C0C0" stroke="none" d="M 729 535 L 768 535 Q 778 535 778 545 L 778 581 Q 778 591 768 591 L 729 591 Q 719 591 719 581 L 719 545 Q 719 535 729 535 Z" opacity="0.2"/></g><g transform="translate(-46,2) scale(1,1)"><path fill="#ffffff" stroke="none" d="M 722 528 L 761 528 Q 771 528 771 538 L 771 574 Q 771 584 761 584 L 722 584 Q 712 584 712 574 L 712 538 Q 712 528 722 528 Z"/></g><g transform="translate(-46,2) scale(1,1)"><path fill="none" stroke="#000000" d="M 722 528 L 761 528 Q 771 528 771 538 L 771 574 Q 771 584 761 584 L 722 584 Q 712 584 712 574 L 712 538 Q 712 528 722 528 Z" stroke-miterlimit="10"/></g><g transform="translate(-46,2) scale(1,1)"><g><path fill="none" stroke="none"/><text fill="#000000" stroke="none" font-family="Arial" font-size="13px" font-style="normal" font-weight="bold" text-decoration="none" x="725.240478515625" y="547.5">Jouer</text></g></g><g transform="translate(-46,2) scale(1,1)"><path fill="#C0C0C0" stroke="none" d="M 183 392.5 C 183 387.2532944 187.2532944 383 192.5 383 C 197.7467056 383 202 387.2532944 202 392.5 C 202 397.7467056 197.7467056 402 192.5 402 C 187.2532944 402 183 397.7467056 183 392.5 Z" opacity="0.2"/></g><g transform="translate(-46,2) scale(1,1)"><path fill="#000000" stroke="none" d="M 176 385.5 C 176 380.2532944 180.2532944 376 185.5 376 C 190.7467056 376 195 380.2532944 195 385.5 C 195 390.7467056 190.7467056 395 185.5 395 C 180.2532944 395 176 390.7467056 176 385.5 Z"/></g><g transform="translate(-46,2) scale(1,1)"><path fill="none" stroke="#000000" d="M 569 576 Q 626 592 711 565" stroke-miterlimit="10"/></g><g transform="translate(-46,2) scale(1,1)"><path fill="none" stroke="#000000" d="M 702.5886225660236 572.0886338361629 L 711 565 L 700.0398369224166 564.0646790322149" stroke-miterlimit="10"/></g><g transform="translate(-46,2) scale(1,1)"><g><path fill="none" stroke="none"/><text fill="#000000" stroke="none" font-family="Arial" font-size="13px" font-style="normal" font-weight="normal" text-decoration="none" x="592.944091796875" y="579.5">tour joueur</text></g></g><g transform="translate(-46,2) scale(1,1)"><path fill="none" stroke="#000000" d="M 711 552 Q 641 544 569 552" stroke-miterlimit="10"/></g><g transform="translate(-46,2) scale(1,1)"><path fill="none" stroke="#000000" d="M 578.6356537719332 546.6939490779461 L 569 552 L 579.5653807116051 555.0614915349942" stroke-miterlimit="10"/></g><g transform="translate(-46,2) scale(1,1)"><g><path fill="none" stroke="none"/><text fill="#000000" stroke="none" font-family="Arial" font-size="13px" font-style="normal" font-weight="normal" text-decoration="none" x="609.305908203125" y="539.5">jouer carte</text></g></g><g transform="translate(-46,2) scale(1,1)"><path fill="none" stroke="#000000" d="M 711 536 Q 640 488 569 526" stroke-miterlimit="10"/></g><g transform="translate(-46,2) scale(1,1)"><path fill="none" stroke="#000000" d="M 575.973696051685 517.493087318027 L 569 526 L 579.9464434124652 524.9158521236953" stroke-miterlimit="10"/></g><g transform="translate(-46,2) scale(1,1)"><g><path fill="none" stroke="none"/><text fill="#000000" stroke="none" font-family="Arial" font-size="13px" font-style="normal" font-weight="normal" text-decoration="none" x="619.180419921875" y="507.5">jouer wild</text></g></g><g transform="translate(-46,2) scale(1,1)"><path fill="none" stroke="#000000" d="M 760 528 L 760 504 L 808 504 L 808 536 L 771 536" stroke-miterlimit="10"/></g><g transform="translate(-46,2) scale(1,1)"><path fill="none" stroke="#000000" d="M 781.1626748576241 531.790482243984 L 771 536 L 781.1626748576241 540.209517756016" stroke-miterlimit="10"/></g><g transform="translate(-46,2) scale(1,1)"><g><path fill="none" stroke="none"/><text fill="#000000" stroke="none" font-family="Arial" font-size="13px" font-style="normal" font-weight="normal" text-decoration="none" x="768.220458984375" y="524.5">pioche</text></g></g><g transform="translate(-46,2) scale(1,1)"><path fill="none" stroke="#000000" d="M 772 554 Q 904 544 958 496" stroke-miterlimit="10"/></g><g transform="translate(-46,2) scale(1,1)"><path fill="none" stroke="#000000" d="M 953.200973484669 505.8979464792022 L 958 496 L 947.60767073265 499.6054808831808" stroke-miterlimit="10"/></g><g transform="translate(-46,2) scale(1,1)"><g><path fill="none" stroke="none"/><text fill="#000000" stroke="none" font-family="Arial" font-size="13px" font-style="normal" font-weight="normal" text-decoration="none" x="832.305908203125" y="563.5">jouer dernière carte</text></g></g><g transform="translate(-46,2) scale(1,1)"><path fill="none" stroke="#000000" d="M 447 562 Q 292 568 293 647" stroke-miterlimit="10"/></g><g transform="translate(-46,2) scale(1,1)"><path fill="none" stroke="#000000" d="M 288.6621883015425 636.8914199974118 L 293 647 L 297.08054940050715 636.7848584645135" stroke-miterlimit="10"/></g><g transform="translate(-46,2) scale(1,1)"><g><path fill="none" stroke="none"/><text fill="#000000" stroke="none" font-family="Arial" font-size="13px" font-style="normal" font-weight="normal" text-decoration="none" x="184.215087890625" y="611.5">autre joueur joue</text><text fill="#000000" stroke="none" font-family="Arial" font-size="13px" font-style="normal" font-weight="normal" text-decoration="none" x="192.8955078125" y="624.5">dernière carte</text></g></g><g transform="translate(-46,2) scale(1,1)"><path fill="#C0C0C0" stroke="none" d="M 377 375 L 470.0380859375 375 Q 480.0380859375 375 480.0380859375 385 L 480.0380859375 404 Q 480.0380859375 414 470.0380859375 414 L 377 414 Q 367 414 367 404 L 367 385 Q 367 375 377 375 Z" opacity="0.2"/></g><g transform="translate(-46,2) scale(1,1)"><path fill="#ffffff" stroke="none" d="M 370 368 L 463.0380859375 368 Q 473.0380859375 368 473.0380859375 378 L 473.0380859375 397 Q 473.0380859375 407 463.0380859375 407 L 370 407 Q 360 407 360 397 L 360 378 Q 360 368 370 368 Z"/></g><g transform="translate(-46,2) scale(1,1)"><path fill="none" stroke="#000000" d="M 370 368 L 463.0380859375 368 Q 473.0380859375 368 473.0380859375 378 L 473.0380859375 397 Q 473.0380859375 407 463.0380859375 407 L 370 407 Q 360 407 360 397 L 360 378 Q 360 368 370 368 Z" stroke-miterlimit="10"/></g><g transform="translate(-46,2) scale(1,1)"><g><path fill="none" stroke="none"/><text fill="#000000" stroke="none" font-family="Arial" font-size="13px" font-style="normal" font-weight="bold" text-decoration="none" x="368.09912109375" y="387.5">Veux contester ?</text></g></g><g transform="translate(-46,2) scale(1,1)"><path fill="none" stroke="#000000" d="M 529 510 Q 560 440 473 408" stroke-miterlimit="10"/></g><g transform="translate(-46,2) scale(1,1)"><path fill="none" stroke="#000000" d="M 483.9910946392904 407.55746341375846 L 473 408 L 481.08479817315987 415.4589569310508" stroke-miterlimit="10"/></g><g transform="translate(-46,2) scale(1,1)"><g><path fill="none" stroke="none"/><text fill="#000000" stroke="none" font-family="Arial" font-size="13px" font-style="normal" font-weight="normal" text-decoration="none" x="502.5" y="418.5">plus quatre</text></g></g><g transform="translate(-46,2) scale(1,1)"><path fill="none" stroke="#000000" d="M 443 408 Q 512 463 510 510" stroke-miterlimit="10"/></g><g transform="translate(-46,2) scale(1,1)"><path fill="none" stroke="#000000" d="M 506.2263515604047 499.66754736500866 L 510 510 L 514.6377749230393 500.0254802740569" stroke-miterlimit="10"/></g><g transform="translate(-46,2) scale(1,1)"><g><path fill="none" stroke="none"/><text fill="#000000" stroke="none" font-family="Arial" font-size="13px" font-style="normal" font-weight="normal" text-decoration="none" x="447.5" y="476.5">conteste</text><text fill="#000000" stroke="none" font-family="Arial" font-size="13px" font-style="normal" font-weight="normal" text-decoration="none" x="461.591796875" y="489.5">pas</text></g></g><g transform="translate(-46,2) scale(1,1)"><path fill="none" stroke="#000000" d="M 416 408 Q 416 464 461 510" stroke-miterlimit="10"/></g><g transform="translate(-46,2) scale(1,1)"><path fill="none" stroke="#000000" d="M 450.88419434488014 505.67906538491434 L 461 510 L 456.90240739149027 499.7916830567088" stroke-miterlimit="10"/></g><g transform="translate(-46,2) scale(1,1)"><g><path fill="none" stroke="none"/><text fill="#000000" stroke="none" font-family="Arial" font-size="13px" font-style="normal" font-weight="normal" text-decoration="none" x="366.944091796875" y="450.5">conteste</text><text fill="#000000" stroke="none" font-family="Arial" font-size="13px" font-style="normal" font-weight="normal" text-decoration="none" x="367.667724609375" y="463.5">et perd /</text><text fill="#000000" stroke="none" font-family="Arial" font-size="13px" font-style="normal" font-weight="normal" text-decoration="none" x="366.944091796875" y="476.5">conteste</text><text fill="#000000" stroke="none" font-family="Arial" font-size="13px" font-style="normal" font-weight="normal" text-decoration="none" x="381.035888671875" y="489.5">pas</text></g></g><g transform="translate(-46,2) scale(1,1)"><path fill="none" stroke="#000000" d="M 456 607 L 456 624 L 368 624 L 368 576 L 448 576" stroke-miterlimit="10"/></g><g transform="translate(-46,2) scale(1,1)"><path fill="none" stroke="#000000" d="M 437.83732514237585 580.209517756016 L 448 576 L 437.83732514237585 571.790482243984" stroke-miterlimit="10"/></g><g transform="translate(-46,2) scale(1,1)"><g><path fill="none" stroke="none"/><text fill="#000000" stroke="none" font-family="Arial" font-size="13px" font-style="normal" font-weight="normal" text-decoration="none" x="375.339599609375" y="595.5">carte jouée</text><text fill="#000000" stroke="none" font-family="Arial" font-size="13px" font-style="normal" font-weight="normal" text-decoration="none" x="369.550537109375" y="608.5">par quelquun</text><text fill="#000000" stroke="none" font-family="Arial" font-size="13px" font-style="normal" font-weight="normal" text-decoration="none" x="389.069580078125" y="621.5">dautre</text></g></g><g transform="translate(-46,2) scale(1,1)"><path fill="#C0C0C0" stroke="none" d="M 489 719 L 538.6708984375 719 Q 548.6708984375 719 548.6708984375 729 L 548.6708984375 748 Q 548.6708984375 758 538.6708984375 758 L 489 758 Q 479 758 479 748 L 479 729 Q 479 719 489 719 Z" opacity="0.2"/></g><g transform="translate(-46,2) scale(1,1)"><path fill="#ffffff" stroke="none" d="M 482 712 L 531.6708984375 712 Q 541.6708984375 712 541.6708984375 722 L 541.6708984375 741 Q 541.6708984375 751 531.6708984375 751 L 482 751 Q 472 751 472 741 L 472 722 Q 472 712 482 712 Z"/></g><g transform="translate(-46,2) scale(1,1)"><path fill="none" stroke="#000000" d="M 482 712 L 531.6708984375 712 Q 541.6708984375 712 541.6708984375 722 L 541.6708984375 741 Q 541.6708984375 751 531.6708984375 751 L 482 751 Q 472 751 472 741 L 472 722 Q 472 712 482 712 Z" stroke-miterlimit="10"/></g><g transform="translate(-46,2) scale(1,1)"><g><path fill="none" stroke="none"/><text fill="#000000" stroke="none" font-family="Arial" font-size="13px" font-style="normal" font-weight="bold" text-decoration="none" x="478.65185546875" y="731.5">Contrable</text></g></g><g transform="translate(-46,2) scale(1,1)"><path fill="none" stroke="#000000" d="M 487 608 Q 464 664 493 711" stroke-miterlimit="10"/></g><g transform="translate(-46,2) scale(1,1)"><path fill="none" stroke="#000000" d="M 484.08105376297993 704.5616463268049 L 493 711 L 491.2459561767585 700.1407490927712" stroke-miterlimit="10"/></g><g transform="translate(-46,2) scale(1,1)"><g><path fill="none" stroke="none"/><text fill="#000000" stroke="none" font-family="Arial" font-size="13px" font-style="normal" font-weight="normal" text-decoration="none" x="409.063232421875" y="666.5">plus deux /</text><text fill="#000000" stroke="none" font-family="Arial" font-size="13px" font-style="normal" font-weight="normal" text-decoration="none" x="428.94091796875" y="679.5">skip</text></g></g><g transform="translate(-46,2) scale(1,1)"><path fill="none" stroke="#000000" d="M 515 711 Q 536 662 521 608" stroke-miterlimit="10"/></g><g transform="translate(-46,2) scale(1,1)"><path fill="none" stroke="#000000" d="M 527.775923314123 616.6652676381705 L 521 608 L 519.6640318164697 618.918570831963" stroke-miterlimit="10"/></g><g transform="translate(-46,2) scale(1,1)"><g><path fill="none" stroke="none"/><text fill="#000000" stroke="none" font-family="Arial" font-size="13px" font-style="normal" font-weight="normal" text-decoration="none" x="535.563232421875" y="655.5">plus deux /</text><text fill="#000000" stroke="none" font-family="Arial" font-size="13px" font-style="normal" font-weight="normal" text-decoration="none" x="555.44091796875" y="668.5">skip</text></g></g><g transform="translate(-46,2) scale(1,1)"><path fill="#C0C0C0" stroke="none" d="M 969 463 L 1008 463 Q 1018 463 1018 473 L 1018 492 Q 1018 502 1008 502 L 969 502 Q 959 502 959 492 L 959 473 Q 959 463 969 463 Z" opacity="0.2"/></g><g transform="translate(-46,2) scale(1,1)"><path fill="#ffffff" stroke="none" d="M 962 456 L 1001 456 Q 1011 456 1011 466 L 1011 485 Q 1011 495 1001 495 L 962 495 Q 952 495 952 485 L 952 466 Q 952 456 962 456 Z"/></g><g transform="translate(-46,2) scale(1,1)"><path fill="none" stroke="#000000" d="M 962 456 L 1001 456 Q 1011 456 1011 466 L 1011 485 Q 1011 495 1001 495 L 962 495 Q 952 495 952 485 L 952 466 Q 952 456 962 456 Z" stroke-miterlimit="10"/></g><g transform="translate(-46,2) scale(1,1)"><g><path fill="none" stroke="none"/><text fill="#000000" stroke="none" font-family="Arial" font-size="13px" font-style="normal" font-weight="bold" text-decoration="none" x="959.943359375" y="475.5">Victoire</text></g></g><g transform="translate(-46,2) scale(1,1)"><path fill="#C0C0C0" stroke="none" d="M 281 655 L 320 655 Q 330 655 330 665 L 330 684 Q 330 694 320 694 L 281 694 Q 271 694 271 684 L 271 665 Q 271 655 281 655 Z" opacity="0.2"/></g><g transform="translate(-46,2) scale(1,1)"><path fill="#ffffff" stroke="none" d="M 274 648 L 313 648 Q 323 648 323 658 L 323 677 Q 323 687 313 687 L 274 687 Q 264 687 264 677 L 264 658 Q 264 648 274 648 Z"/></g><g transform="translate(-46,2) scale(1,1)"><path fill="none" stroke="#000000" d="M 274 648 L 313 648 Q 323 648 323 658 L 323 677 Q 323 687 313 687 L 274 687 Q 264 687 264 677 L 264 658 Q 264 648 274 648 Z" stroke-miterlimit="10"/></g><g transform="translate(-46,2) scale(1,1)"><g><path fill="none" stroke="none"/><text fill="#000000" stroke="none" font-family="Arial" font-size="13px" font-style="normal" font-weight="bold" text-decoration="none" x="272.905029296875" y="667.5">Défaite</text></g></g><g transform="translate(-46,2) scale(1,1)"><path fill="none" stroke="#000000" d="M 263 665 Q 56 648 160 552" stroke-miterlimit="10"/></g><g transform="translate(-46,2) scale(1,1)"><path fill="none" stroke="#000000" d="M 155.3876636439958 561.9863082938132 L 160 552 L 149.67719937198143 555.7999719991309" stroke-miterlimit="10"/></g><g transform="translate(-46,2) scale(1,1)"><g><path fill="none" stroke="none"/><text fill="#000000" stroke="none" font-family="Arial" font-size="13px" font-style="normal" font-weight="normal" text-decoration="none" x="93.5" y="643.5">rejouer</text></g></g><g transform="translate(-46,2) scale(1,1)"><path fill="none" stroke="#000000" d="M 966 455 Q 624 8 207 503" stroke-miterlimit="10"/></g><g transform="translate(-46,2) scale(1,1)"><path fill="none" stroke="#000000" d="M 210.32819135044303 492.51557620396636 L 207 503 L 216.76699383599367 497.93977950997566" stroke-miterlimit="10"/></g><g transform="translate(-46,2) scale(1,1)"><g><path fill="none" stroke="none"/><text fill="#000000" stroke="none" font-family="Arial" font-size="13px" font-style="normal" font-weight="normal" text-decoration="none" x="592.5" y="237.5">rejouer</text></g></g><g transform="translate(-46,2) scale(1,1)"><path fill="#C0C0C0" stroke="none" d="M 729 367 L 844.4580078125 367 Q 854.4580078125 367 854.4580078125 377 L 854.4580078125 396 Q 854.4580078125 406 844.4580078125 406 L 729 406 Q 719 406 719 396 L 719 377 Q 719 367 729 367 Z" opacity="0.2"/></g><g transform="translate(-46,2) scale(1,1)"><path fill="#ffffff" stroke="none" d="M 722 360 L 837.4580078125 360 Q 847.4580078125 360 847.4580078125 370 L 847.4580078125 389 Q 847.4580078125 399 837.4580078125 399 L 722 399 Q 712 399 712 389 L 712 370 Q 712 360 722 360 Z"/></g><g transform="translate(-46,2) scale(1,1)"><path fill="none" stroke="#000000" d="M 722 360 L 837.4580078125 360 Q 847.4580078125 360 847.4580078125 370 L 847.4580078125 389 Q 847.4580078125 399 837.4580078125 399 L 722 399 Q 712 399 712 389 L 712 370 Q 712 360 722 360 Z" stroke-miterlimit="10"/></g><g transform="translate(-46,2) scale(1,1)"><g><path fill="none" stroke="none"/><text fill="#000000" stroke="none" font-family="Arial" font-size="13px" font-style="normal" font-weight="bold" text-decoration="none" x="720.597412109375" y="379.5">Va se faire contester</text></g></g><g transform="translate(-46,2) scale(1,1)"><path fill="none" stroke="#000000" d="M 747 527 L 774 400" stroke-miterlimit="10"/></g><g transform="translate(-46,2) scale(1,1)"><path fill="none" stroke="#000000" d="M 776.0041575675707 410.8158842654842 L 774 400 L 767.7691682979429 409.06513851524835" stroke-miterlimit="10"/></g><g transform="translate(-46,2) scale(1,1)"><g><path fill="none" stroke="none"/><text fill="#000000" stroke="none" font-family="Arial" font-size="13px" font-style="normal" font-weight="normal" text-decoration="none" x="765.305908203125" y="467.5">jouer plus 4</text></g></g><g transform="translate(-46,2) scale(1,1)"><path fill="none" stroke="#000000" d="M 711 394 Q 608 416 542 510" stroke-miterlimit="10"/></g><g transform="translate(-46,2) scale(1,1)"><path fill="none" stroke="#000000" d="M 544.3946579782612 499.26381757014394 L 542 510 L 551.284906295258 504.10165149484385" stroke-miterlimit="10"/></g><g transform="translate(-46,2) scale(1,1)"><g><path fill="none" stroke="none"/><text fill="#000000" stroke="none" font-family="Arial" font-size="13px" font-style="normal" font-weight="normal" text-decoration="none" x="624.885986328125" y="443.5">gagner contest /</text><text fill="#000000" stroke="none" font-family="Arial" font-size="13px" font-style="normal" font-weight="normal" text-decoration="none" x="624.52734375" y="456.5">suivant conteste</text><text fill="#000000" stroke="none" font-family="Arial" font-size="13px" font-style="normal" font-weight="normal" text-decoration="none" x="661.02001953125" y="469.5">pas</text></g></g><g transform="translate(-46,2) scale(1,1)"><path fill="none" stroke="#000000" d="M 208 551 L 208 576 L 252 576 L 252 544 L 223 544" stroke-miterlimit="10"/></g><g transform="translate(-46,2) scale(1,1)"><path fill="none" stroke="#000000" d="M 233.16267485762415 539.790482243984 L 223 544 L 233.16267485762415 548.209517756016" stroke-miterlimit="10"/></g><g transform="translate(-46,2) scale(1,1)"><g><path fill="none" stroke="none"/><text fill="#000000" stroke="none" font-family="Arial" font-size="13px" font-style="normal" font-weight="normal" text-decoration="none" x="213.5" y="568.5">ready</text></g></g></g></svg>